<svg width="50" height="50" viewBox="0 0 50 50" fill="none" xmlns="http://www.w3.org/2000/svg">
<path d="M49.3614 31.008L44.8755 28.5282C45.3283 26.1895 45.3283 23.7903 44.8755 21.4516L49.3614 18.9718C49.8773 18.6895 50.109 18.1049 49.9405 17.5605C48.7717 13.9718 46.7814 10.7259 44.1805 8.02426C43.7803 7.61095 43.1274 7.51015 42.622 7.7924L38.1361 10.2722C36.2512 8.71982 34.0819 7.52023 31.7337 6.73394V1.78436C31.7337 1.21985 31.323 0.725898 30.7438 0.604931C26.8792 -0.221679 22.9198 -0.181356 19.2447 0.604931C18.6656 0.725898 18.2549 1.21985 18.2549 1.78436V6.74402C15.9172 7.54039 13.7479 8.73998 11.8525 10.2823L7.37711 7.80248C6.86113 7.52023 6.21878 7.61095 5.81863 8.03434C3.21765 10.7259 1.22742 13.9718 0.058561 17.5706C-0.120454 18.1149 0.121743 18.6996 0.637727 18.9819L5.12363 21.4617C4.67083 23.8004 4.67083 26.1996 5.12363 28.5383L0.637727 31.0181C0.121743 31.3004 -0.109924 31.8851 0.058561 32.4294C1.22742 36.0181 3.21765 39.2641 5.81863 41.9657C6.21878 42.379 6.87166 42.4798 7.37711 42.1975L11.863 39.7177C13.7479 41.2701 15.9172 42.4697 18.2654 43.256V48.2156C18.2654 48.7801 18.6761 49.2741 19.2553 49.3951C23.1199 50.2217 27.0793 50.1814 30.7543 49.3951C31.3335 49.2741 31.7442 48.7801 31.7442 48.2156V43.256C34.0819 42.4596 36.2512 41.26 38.1466 39.7177L42.6325 42.1975C43.1485 42.4798 43.7908 42.389 44.191 41.9657C46.792 39.2741 48.7822 36.0282 49.9511 32.4294C50.109 31.875 49.8773 31.2903 49.3614 31.008V31.008ZM24.9943 33.0544C20.3504 33.0544 16.5701 29.4355 16.5701 24.9899C16.5701 20.5444 20.3504 16.9254 24.9943 16.9254C29.6381 16.9254 33.4185 20.5444 33.4185 24.9899C33.4185 29.4355 29.6381 33.0544 24.9943 33.0544Z" fill="white"/>
</svg>
