<svg width="30" height="30" viewBox="0 0 30 30" fill="none" xmlns="http://www.w3.org/2000/svg">
<path d="M17.3438 0H28.5938C29.3704 0 30 0.719531 30 1.60714V12.3214C30 13.209 29.3704 13.9286 28.5938 13.9286H17.3438C16.5671 13.9286 15.9375 13.209 15.9375 12.3214V1.60714C15.9375 0.719531 16.5671 0 17.3438 0ZM12.6562 0H1.40625C0.62959 0 0 0.719531 0 1.60714V12.3214C0 13.209 0.62959 13.9286 1.40625 13.9286H12.6562C13.4329 13.9286 14.0625 13.209 14.0625 12.3214V1.60714C14.0625 0.719531 13.4329 0 12.6562 0ZM0 17.6786V28.3929C0 29.2805 0.62959 30 1.40625 30H12.6562C13.4329 30 14.0625 29.2805 14.0625 28.3929V17.6786C14.0625 16.791 13.4329 16.0714 12.6562 16.0714H1.40625C0.62959 16.0714 0 16.791 0 17.6786ZM17.3438 30H28.5938C29.3704 30 30 29.2805 30 28.3929V17.6786C30 16.791 29.3704 16.0714 28.5938 16.0714H17.3438C16.5671 16.0714 15.9375 16.791 15.9375 17.6786V28.3929C15.9375 29.2805 16.5671 30 17.3438 30Z" fill="white"/>
</svg>
