<svg width="30" height="30" viewBox="0 0 30 30" fill="none" xmlns="http://www.w3.org/2000/svg">
<path d="M21.6667 10.7143C21.6667 4.79464 16.8177 0 10.8333 0C4.84896 0 0 4.79464 0 10.7143C0 13.0112 0.734375 15.1272 1.97917 16.875C1.28125 18.8973 0.130208 20.5045 0.114583 20.5246C0 20.6786 -0.03125 20.9063 0.0364583 21.1071C0.104167 21.308 0.25 21.4286 0.416667 21.4286C2.32292 21.4286 3.90104 20.6049 5.03646 19.7545C6.71354 20.8058 8.69792 21.4286 10.8333 21.4286C16.8177 21.4286 21.6667 16.6339 21.6667 10.7143ZM28.0208 25.4464C29.2656 23.7054 30 21.5826 30 19.2857C30 14.8058 27.2135 10.9687 23.2656 9.3683C23.3125 9.81027 23.3333 10.2589 23.3333 10.7143C23.3333 17.8058 17.724 23.5714 10.8333 23.5714C10.2708 23.5714 9.72396 23.5179 9.18229 23.4442C10.8229 27.2946 14.6771 30 19.1667 30C21.3021 30 23.2865 29.3839 24.9635 28.3259C26.099 29.1763 27.6771 30 29.5833 30C29.75 30 29.901 29.8728 29.9635 29.6786C30.0312 29.4844 30 29.2567 29.8854 29.096C29.8698 29.0759 28.7187 27.4754 28.0208 25.4464Z" fill="white"/>
</svg>
