<svg width="150" height="117" viewBox="0 0 150 117" fill="none" xmlns="http://www.w3.org/2000/svg">
<path fill-rule="evenodd" clip-rule="evenodd" d="M103.897 33.5024C102.748 34.9525 99.9317 35.9869 99.9317 35.9869L78.9835 43.5114V37.9623L94.4 32.4693C96.1494 31.8425 96.4181 30.9564 94.996 30.4913C93.5767 30.0248 91.0066 30.1585 89.2558 30.788L78.9835 34.4059V28.6469L79.5755 28.4464C79.5755 28.4464 82.5439 27.3959 86.7178 26.9335C90.8916 26.4738 96.0024 26.9963 100.015 28.5173C104.536 29.946 105.045 32.0523 103.897 33.5024V33.5024ZM80.9775 24.0534V9.86245C80.9775 8.19584 80.6701 6.66154 79.1064 6.22718C77.9089 5.84361 77.1658 6.95557 77.1658 8.62084V44.1583L67.5818 41.1164V-1.25586C71.6568 -0.499402 77.5935 1.28883 80.7851 2.36471C88.9016 5.1513 91.6535 8.61951 91.6535 16.434C91.6535 24.0507 86.9517 26.9375 80.9775 24.0534ZM49.9962 37.3822C45.3546 36.0751 44.5821 33.3514 46.6977 31.7823C48.653 30.3336 51.9782 29.243 51.9782 29.243L65.7201 24.3567V29.9273L55.8314 33.4663C54.0846 34.0931 53.8159 34.9806 55.2353 35.4457C56.656 35.9107 59.2274 35.7784 60.9769 35.1503L65.7201 33.4289V38.4127C65.4194 38.4661 65.0839 38.5196 64.7738 38.5717C60.0293 39.3469 54.976 39.0235 49.9962 37.3822V37.3822ZM100.845 39.5888C101.445 39.5888 102.007 39.8213 102.431 40.2504C102.855 40.6727 103.089 41.2367 103.089 41.8354C103.089 42.4369 102.855 42.9982 102.431 43.4205C102.007 43.8469 101.445 44.0794 100.845 44.0794C100.244 44.0794 99.6831 43.8469 99.2581 43.4205C98.8344 42.9982 98.6019 42.4369 98.6019 41.8354C98.6019 40.5978 99.6069 39.5888 100.845 39.5888ZM98.9788 41.8354C98.9788 42.334 99.1726 42.8031 99.5254 43.1532C99.8769 43.5087 100.347 43.7012 100.845 43.7012C101.875 43.7012 102.71 42.8645 102.71 41.8354C102.71 41.3356 102.518 40.8665 102.164 40.515C101.812 40.1595 101.342 39.9684 100.845 39.9684C100.347 39.9684 99.8769 40.1595 99.5254 40.515C99.1726 40.8665 98.9788 41.3356 98.9788 41.8354V41.8354ZM101.522 40.6259C101.768 40.7342 101.892 40.9427 101.892 41.2394C101.892 41.3917 101.86 41.52 101.795 41.6203C101.748 41.6924 101.681 41.7512 101.606 41.802C101.665 41.8368 101.717 41.8782 101.756 41.9263C101.809 41.9958 101.84 42.1067 101.844 42.2578L101.856 42.5772C101.86 42.6627 101.866 42.7282 101.879 42.7683C101.892 42.8271 101.918 42.8645 101.95 42.8766L101.983 42.8926V42.9287V42.9835V43.0383H101.928H101.532H101.499L101.483 43.0102C101.47 42.9835 101.461 42.9528 101.451 42.9127C101.445 42.8766 101.438 42.8138 101.434 42.7176L101.414 42.3206C101.409 42.1829 101.362 42.0974 101.274 42.052C101.219 42.0266 101.128 42.0146 101.005 42.0146H100.325V42.9835V43.0383H100.268H99.9451H99.8903V42.9835V40.5952V40.5404H99.9451H101.05C101.24 40.5404 101.399 40.5685 101.522 40.6259L101.522 40.6259ZM100.325 41.6323H101.017C101.156 41.6323 101.267 41.6069 101.346 41.5548C101.418 41.5027 101.453 41.4078 101.453 41.2701C101.453 41.1204 101.403 41.0229 101.299 40.9707C101.241 40.9427 101.161 40.9266 101.06 40.9266H100.325V41.6323V41.6323Z" fill="white"/>
<path d="M63.8865 66.8339C63.7229 66.8201 61.4621 66.6239 61.1514 66.5918C59.6502 66.437 59.0229 64.8713 59.0229 63.8765V63.1158C59.0229 62.1361 59.3407 60.1223 61.7976 60.1223C63.3454 60.1223 66.9136 60.1223 66.9136 60.1223L66.9124 57.7855C66.9124 57.7855 63.4621 57.7855 61.0597 57.7855C56.7961 57.7855 55.3835 61.2932 55.3835 63.1504V64.4335C55.3835 65.9596 56.4369 69.27 60.0396 69.6818C60.4436 69.728 61.3763 69.7949 61.8418 69.8325C63.5744 69.9723 64.3253 71.278 64.3253 72.6701C64.3253 73.0657 64.3184 73.5936 64.3184 73.8107C64.3184 76.4231 62.6271 76.9908 61.6657 76.9908C60.7245 76.9908 56.2049 76.9908 56.2049 76.9908V79.2959C56.2049 79.2959 61.5004 79.2959 63.1153 79.2959C66.2456 79.2959 68.1245 76.7041 68.1245 73.5997V72.258C68.1245 69.6937 66.4865 67.0541 63.8867 66.8339H63.8865ZM74.7078 60.1724L70.8874 60.1705C70.8874 60.1705 70.8874 72.7315 70.8874 74.7643C70.8874 76.5549 72.1944 79.2968 75.2513 79.2968C77.3263 79.2968 77.7901 79.2968 77.7901 79.2968V76.9937C77.7901 76.9937 77.5483 76.9937 76.0851 76.9937C75.3619 76.9937 74.7086 76.4905 74.7086 75.2756C74.7086 74.3409 74.7086 65.251 74.7086 65.251H78.8026V62.9159H74.7078V60.1724ZM23.1971 70.7202C23.1971 72.3223 23.1987 71.5483 23.1987 74.3229C23.1987 77.8257 25.5428 79.2985 27.2515 79.2985C29.5503 79.2985 31.0684 79.2985 31.0684 79.2985V76.9902C31.0684 76.9902 29.6875 76.9902 28.623 76.9902C27.9226 76.9902 27.0138 76.902 27.0138 74.8432V70.2942C27.0138 65.5308 28.6175 65.2509 29.7119 65.2509C32.3184 65.2509 32.7684 65.2509 32.7684 65.2509V79.3107L36.5549 79.3012V62.9169C36.5549 62.9169 33.266 62.9169 30.066 62.9169C27.6047 62.9169 23.1971 63.3747 23.1971 70.7202H23.1971ZM16.6307 57.7847V79.2965H20.4109L20.4104 57.7847H16.6307ZM80.3303 70.7202C80.3303 72.3223 80.3321 71.5483 80.3321 74.3229C80.3321 77.8257 82.6761 79.2985 84.3849 79.2985C86.6836 79.2985 88.2017 79.2985 88.2017 79.2985V76.9902C88.2017 76.9902 86.8209 76.9902 85.7564 76.9902C85.0558 76.9902 84.1472 76.902 84.1472 74.8432V70.2942C84.1472 65.5308 85.7509 65.2509 86.8453 65.2509C89.4517 65.2509 89.9018 65.2509 89.9018 65.2509V79.3107L93.6884 79.3012V62.9169C93.6884 62.9169 90.3995 62.9169 87.1993 62.9169C84.7381 62.9169 80.3303 63.3747 80.3303 70.7202H80.3303ZM46.2633 73.6841L42.6055 62.9167H38.6146L44.149 79.17L41.0351 87.2822H44.3307L54.0413 62.9185H50.4361L46.2633 73.6841ZM9.32229 57.7833C5.97674 57.7833 0 57.7877 0 57.7877V79.2959L3.7903 79.2962V60.1256C3.7903 60.1256 6.69777 60.1256 8.25867 60.1256C9.56346 60.1256 10.4866 61.7086 10.4866 64.483C10.4866 67.1717 9.66488 68.9344 8.21978 68.9344C6.69371 68.9344 5.45973 68.9344 5.45973 68.9344V71.2385C5.45973 71.2385 7.48918 71.2378 9.38193 71.2378C11.0013 71.2378 14.2758 69.7486 14.2758 64.5717C14.2758 59.1257 11.1569 57.7833 9.32229 57.7833ZM136.518 62.9173C133.291 62.9173 129.771 62.9173 129.771 62.9173V79.2971L133.614 79.2977V65.248C133.614 65.248 134.3 65.248 136.726 65.248C139.096 65.248 139.322 67.9428 139.322 70.401C139.322 72.7491 139.322 79.2962 139.322 79.2962H143.122C143.122 79.2962 143.122 72.2818 143.122 70.3483C143.122 65.8808 141.26 62.9173 136.518 62.9173V62.9173ZM120.338 62.9185C113.709 62.9185 113.372 68.2296 113.372 70.1282V72.2418C113.372 75.0121 114.362 79.2994 120.43 79.2994C125.949 79.2994 127.307 75.4118 127.307 72.1124V70.1394C127.307 69.176 127.304 62.9185 120.338 62.9185V62.9185ZM123.472 71.8349C123.472 75.0493 122.908 76.9992 120.365 76.9992C118.212 76.9992 117.182 75.836 117.182 71.7992V70.4056C117.182 67.6611 117.534 65.2415 120.343 65.2415C123.103 65.2415 123.472 67.5534 123.472 70.4137V71.8349V71.8349ZM100.626 60.1724L96.8056 60.1705C96.8056 60.1705 96.8056 72.7315 96.8056 74.7643C96.8056 76.5549 98.1124 79.2968 101.169 79.2968C103.244 79.2968 103.708 79.2968 103.708 79.2968V76.9937C103.708 76.9937 103.466 76.9937 102.003 76.9937C101.28 76.9937 100.627 76.4905 100.627 75.2756C100.627 74.3409 100.627 65.251 100.627 65.251H104.721V62.9159H100.626V60.1724ZM147.858 75.0034C146.675 75.0034 145.716 75.9623 145.716 77.1452C145.716 78.3281 146.675 79.2872 147.858 79.2872C149.041 79.2872 150 78.3281 150 77.1452C150 75.9623 149.041 75.0034 147.858 75.0034V75.0034ZM147.858 78.993C146.838 78.993 146.01 78.1656 146.01 77.1452C146.01 76.1248 146.838 75.2974 147.858 75.2974C148.879 75.2974 149.706 76.1248 149.706 77.1452C149.706 78.1656 148.879 78.993 147.858 78.993ZM107.05 79.2985H110.84V62.9169H107.05V79.2985ZM107.05 61.0006H110.84V57.7832H107.05V61.0006ZM148.825 78.102C148.813 78.0585 148.806 77.9926 148.803 77.9038L148.792 77.5918C148.786 77.4566 148.761 77.3591 148.715 77.2987C148.669 77.2386 148.6 77.1899 148.509 77.153C148.613 77.0993 148.693 77.0279 148.751 76.9391C148.809 76.8503 148.837 76.7366 148.837 76.597C148.837 76.33 148.73 76.1466 148.516 76.0473C148.402 75.9957 148.259 75.9698 148.085 75.9698H147.027V78.2967H147.342V77.2987H148.039C148.164 77.2987 148.256 77.3129 148.315 77.3417C148.417 77.3933 148.472 77.4952 148.479 77.6472L148.498 78.0353C148.503 78.1264 148.508 78.1873 148.514 78.2193C148.521 78.2509 148.529 78.2767 148.54 78.2967H148.926V78.2445C148.877 78.2233 148.844 78.1757 148.825 78.102H148.825ZM148.392 76.9473C148.308 77.0065 148.194 77.0358 148.051 77.0358H147.342V76.2406H148.091C148.195 76.2406 148.279 76.2566 148.342 76.2882C148.459 76.3483 148.517 76.4614 148.517 76.6272C148.517 76.7813 148.476 76.8881 148.392 76.9473Z" fill="white"/>
</svg>
